<?xml version="1.0" encoding="UTF-8"?>
<svg id="Capa_2" data-name="Capa 2" xmlns="http://www.w3.org/2000/svg" viewBox="0 0 100.82 40.54">
  <defs>
    <style>
      .cls-1 {
        letter-spacing: -.01em;
      }

      .cls-2 {
        font-family: DINNextCYR-Regular, 'DIN Next CYR';
        font-size: 7.67px;
      }

      .cls-2, .cls-3 {
        fill: #8e8e8e;
      }
    </style>
  </defs>
  <g id="Capa_1-2" data-name="Capa 1">
    <g>
      <g>
        <g>
          <path class="cls-3" d="m11.56,16.95l8.66-10.71c.85-1.08,1.58-1.76,1.58-1.76v-.07s-.55.07-1.73.07h-3.39c-.52,0-.81.3-.81.82v1.08h-4.24v-3.4c0-1.76.74-2.54,2.5-2.54h13.77v2.58l-8.65,10.71c-.85,1.05-1.58,1.75-1.58,1.75v.07s.55-.11,1.77-.11h4.13c.52,0,.81-.26.81-.82v-1.04h4.24v3.36c0,1.79-.74,2.54-2.47,2.54h-14.59v-2.54Z"/>
          <path class="cls-3" d="m39.37,15.9c3.06,0,5.6-2.39,5.6-5.94s-2.54-5.94-5.6-5.94-5.56,2.43-5.56,5.94,2.54,5.94,5.56,5.94m0-15.9c5.75,0,10.31,4.14,10.31,9.97s-4.57,9.97-10.31,9.97-10.28-4.11-10.28-9.97S33.66,0,39.37,0"/>
          <path class="cls-3" d="m61.09,0c2.43,0,6.81,1.01,6.81,4.29v2.24h-4.13v-1.05c0-1.05-1.55-1.49-2.69-1.49-3.24,0-5.56,2.5-5.56,5.94,0,3.88,2.84,5.86,5.86,5.86,3.2,0,5.56-2.58,5.56-2.58l1.95,3.29s-2.8,3.43-7.92,3.43c-6.19,0-10.16-4.44-10.16-9.97S54.65,0,61.09,0"/>
          <path class="cls-3" d="m79.18,15.9c3.06,0,5.6-2.39,5.6-5.94s-2.54-5.94-5.6-5.94-5.56,2.43-5.56,5.94,2.54,5.94,5.56,5.94m0-15.9c5.75,0,10.31,4.14,10.31,9.97s-4.57,9.97-10.31,9.97-10.28-4.11-10.28-9.97S73.47,0,79.18,0"/>
        </g>
        <g>
          <path class="cls-3" d="m11.75,28.36s.5.6,1.23.6c.46,0,.84-.28.84-.74,0-1.05-2.38-.88-2.38-2.44,0-.75.65-1.34,1.58-1.34.52,0,1.4.24,1.4.92v.41h-.64v-.23c0-.26-.37-.45-.76-.45-.53,0-.86.3-.86.67,0,1.01,2.37.78,2.37,2.42,0,.76-.59,1.42-1.56,1.42-1.05,0-1.63-.74-1.63-.74l.41-.5Z"/>
          <path class="cls-3" d="m16.23,25.14h-.45v-.61h2.89c.31,0,.45.13.45.45v.63h-.63v-.32c0-.11-.06-.16-.15-.16h-1.4v1.56h1.72v.61h-1.72v1.45c0,.1.06.16.15.16h1.44c.1,0,.15-.06.15-.16v-.32h.64v.63c0,.32-.13.45-.45.45h-2.19c-.31,0-.45-.13-.45-.45v-3.93Z"/>
          <path class="cls-3" d="m22.49,26.93c.53,0,.84-.35.84-.9s-.31-.88-.83-.88h-.92v1.79h.91Zm-1.6-1.79h-.45v-.61h2.15c.86,0,1.47.55,1.47,1.46,0,.83-.54,1.24-.88,1.32h0s.13.08.21.24l.59,1.19c.07.15.18.16.35.16h.09v.61h-.34c-.38,0-.52-.05-.68-.37l-.67-1.34c-.13-.23-.22-.27-.49-.27h-.64v1.99h-.7v-4.38Z"/>
          <path class="cls-3" d="m25.55,25.3c-.04-.13-.11-.16-.23-.16h-.1v-.61h.39c.35,0,.47.08.58.41l1.08,3.07c.09.27.19.69.19.69h.01s.09-.42.19-.69l1.08-3.07c.12-.33.23-.41.58-.41h.39v.61h-.1c-.13,0-.19.03-.23.16l-1.55,4.22h-.74l-1.55-4.22Z"/>
          <polygon class="cls-3" points="30.78 28.91 31.26 28.91 31.26 25.14 30.78 25.14 30.78 24.53 32.4 24.53 32.4 25.14 31.92 25.14 31.92 28.91 32.4 28.91 32.4 29.52 30.78 29.52 30.78 28.91"/>
          <path class="cls-3" d="m36.1,24.45c.66,0,1.85.28,1.85,1.08v.49h-.64v-.28c0-.42-.7-.63-1.19-.63-.99,0-1.76.76-1.76,1.88s.77,1.96,1.78,1.96,1.55-.68,1.55-.68l.38.51s-.7.83-1.94.83c-1.47,0-2.5-1.15-2.5-2.62s1.06-2.54,2.47-2.54"/>
          <polygon class="cls-3" points="39.27 28.91 39.75 28.91 39.75 25.14 39.27 25.14 39.27 24.53 40.89 24.53 40.89 25.14 40.41 25.14 40.41 28.91 40.89 28.91 40.89 29.52 39.27 29.52 39.27 28.91"/>
          <path class="cls-3" d="m44.64,28.94c1,0,1.81-.85,1.81-1.95s-.81-1.89-1.81-1.89-1.8.82-1.8,1.89.8,1.95,1.8,1.95m0-4.49c1.42,0,2.53,1.11,2.53,2.54s-1.11,2.61-2.53,2.61-2.52-1.14-2.52-2.61,1.1-2.54,2.52-2.54"/>
          <path class="cls-3" d="m48.76,28.36s.5.6,1.23.6c.46,0,.84-.28.84-.74,0-1.05-2.38-.88-2.38-2.44,0-.75.65-1.34,1.58-1.34.52,0,1.4.24,1.4.92v.41h-.64v-.23c0-.26-.37-.45-.76-.45-.53,0-.86.3-.86.67,0,1.01,2.37.78,2.37,2.42,0,.76-.59,1.42-1.56,1.42-1.05,0-1.63-.74-1.63-.74l.41-.5Z"/>
          <path class="cls-3" d="m56.66,28.91h.64c1.09,0,1.81-.66,1.81-1.89s-.72-1.88-1.81-1.88h-.79v3.62c0,.1.06.16.15.16m-.85-3.77h-.45v-.61h1.99c1.5,0,2.49.91,2.49,2.49s-.99,2.5-2.49,2.5h-1.09c-.31,0-.45-.13-.45-.45v-3.93Z"/>
          <path class="cls-3" d="m61.49,25.14h-.45v-.61h2.89c.31,0,.45.13.45.45v.63h-.63v-.32c0-.11-.06-.16-.15-.16h-1.4v1.56h1.72v.61h-1.72v1.45c0,.1.06.16.15.16h1.44c.1,0,.15-.06.15-.16v-.32h.64v.63c0,.32-.13.45-.45.45h-2.19c-.31,0-.45-.13-.45-.45v-3.93Z"/>
          <path class="cls-3" d="m70.32,27.07c.58,0,.93-.37.93-.97s-.36-.95-.93-.95h-.91v1.93h.91Zm-1.6-1.93h-.45v-.61h2.17c.9,0,1.54.61,1.54,1.56s-.64,1.58-1.54,1.58h-1.02v1.84h-.7v-4.38Z"/>
          <path class="cls-3" d="m75.47,27.49l-.54-1.52c-.09-.26-.2-.7-.2-.7h-.01s-.1.44-.19.7l-.54,1.52h1.47Zm-2.97,1.42h.1c.13,0,.19-.03.23-.16l1.54-4.22h.73l1.54,4.22c.04.13.11.16.23.16h.1v.61h-.39c-.35,0-.46-.08-.57-.41l-.37-1.02h-1.81l-.37,1.02c-.12.32-.23.41-.58.41h-.38v-.61Z"/>
          <path class="cls-3" d="m80.38,24.45c1.18,0,1.76.61,1.76.61l-.4.52s-.53-.48-1.34-.48c-.98,0-1.77.8-1.77,1.91s.79,1.94,1.78,1.94c.88,0,1.4-.62,1.4-.62v-.5c0-.1-.06-.16-.15-.16h-.3v-.61h.65c.31,0,.45.13.45.45v2.01h-.61v-.31c0-.11,0-.21,0-.21h-.01s-.55.61-1.53.61c-1.31,0-2.4-1.05-2.4-2.6,0-1.43,1.07-2.56,2.48-2.56"/>
          <path class="cls-3" d="m86.24,28.94c1,0,1.81-.85,1.81-1.95s-.81-1.89-1.81-1.89-1.8.82-1.8,1.89.8,1.95,1.8,1.95m0-4.49c1.42,0,2.53,1.11,2.53,2.54s-1.11,2.61-2.53,2.61-2.52-1.14-2.52-2.61,1.1-2.54,2.52-2.54"/>
        </g>
      </g>      
    </g>
  </g>
</svg>