<?xml version="1.0" encoding="utf-8"?>
<!-- Generator: Adobe Illustrator 27.7.0, SVG Export Plug-In . SVG Version: 6.00 Build 0)  -->
<svg version="1.1" id="Capa_1" xmlns="http://www.w3.org/2000/svg" xmlns:xlink="http://www.w3.org/1999/xlink" x="0px" y="0px"
	 viewBox="0 0 1080 1080" style="enable-background:new 0 0 1080 1080;" xml:space="preserve">
<style type="text/css">
	.st0{fill:#2D3035;}
	.st1{opacity:0.75;fill:#2D3035;}
	.st2{fill-rule:evenodd;clip-rule:evenodd;fill:#2D3035;}
</style>
<g>
	<g>
		<path class="st0" d="M75,373.2L22.9,494.5h34l9.6-24.3h56l9.6,24.3h34.7l-52.1-121.3H75z M94.3,401.4l17.1,42.4H77.2L94.3,401.4z
			 M170.3,494.5V373.2l48.3,0.2l28.1,78.2l27.4-78.4h47.9v121.3h-30.3v-89.4l-32.1,89.4h-26.6l-32.2-89.4v89.4H170.3z M342.7,494.5
			V373.2h99v27.1h-68.3v20.7h66.7v25.5h-66.7v21.5h68.3v26.3L342.7,494.5z M459.2,373.2v121.3h30.3v-43.1h12.8l36.4,43.1h37.1
			l-39.9-44.7c16.4-1.4,33.3-15.4,33.3-37.3c0-25.5-20-39.4-42.4-39.4H459.2z M489.5,400.4h34.7c8.3,0,14.4,6.5,14.4,12.8
			c0,8.1-7.8,12.8-13.9,12.8h-35.1V400.4z M612.4,494.5h-31V373.2h31V494.5z M685.9,494.5h-6.7c-32.3,0-52-25.5-52-60.2
			c0-35.5,19.4-61.2,60.3-61.2H721v28.7h-34.7c-16.6,0-28.3,12.9-28.3,32.7c0,23.5,13.4,33.4,32.7,33.4h8L685.9,494.5z M751.8,373.2
			l-52.2,121.3h34l9.6-24.3h56l9.6,24.3h34.7l-52.1-121.3H751.8z M771.2,401.4l17.1,42.4H754L771.2,401.4z M847.1,494.5V373.2h38.6
			l49.2,76.2v-76.2h30.3v121.3h-37.3l-50.5-78.2v78.2L847.1,494.5z M243.7,706.8V585.5h99v27.1h-68.3v20.8h66.7v25.5h-66.7v21.5
			h68.3v26.3L243.7,706.8z M728.6,706.8V585.5h99v27.1h-68.3v20.8h66.4v25.5h-66.4v21.5h68.3v26.3L728.6,706.8z M346.5,706.8
			l48.2-59.9l-49.3-61.4h38.2l29.4,38l29.5-38h36.7l-48.7,60.7l48.3,60.7h-38.2L412,669.4l-27.8,37.4H346.5z M482.4,585.5v121.3
			h31.1v-38.3h31.9c27,0,47.5-14.3,47.5-42.2c0-23.1-16.1-40.8-43.5-40.8H482.4z M513.5,612.9h33.6c8.7,0,15,5.3,15,14
			c0,8.1-6.2,14-15.1,14h-33.5V612.9z M606.1,585.5v121.3h30.3v-43.1h12.8l36.4,43.1h37.1l-39.9-44.7c16.4-1.4,33.3-15.4,33.3-37.3
			c0-25.5-20-39.4-42.4-39.4L606.1,585.5z M636.4,612.6H671c8.3,0,14.4,6.5,14.4,12.8c0,8.1-7.8,12.8-13.9,12.8h-35.1V612.6z
			 M841.6,706.8v-26.3h60.7c9,0,12.9-4.9,12.9-10.2c0-5.1-3.9-10.3-12.9-10.3h-27.4c-23.8,0-37.1-14.5-37.1-36.3
			c0-19.5,12.2-38.2,47.6-38.2h59.1l-12.8,27.3h-51.1c-9.8,0-12.8,5.1-12.8,10c0,5,3.7,10.6,11.2,10.6h28.7
			c26.6,0,38.1,15.1,38.1,34.8c0,21.2-12.9,38.6-39.6,38.6L841.6,706.8z M952.9,706.8v-26.3h60.7c9,0,12.9-4.9,12.9-10.2
			c0-5.1-3.9-10.3-12.9-10.3h-27.4c-23.8,0-37.1-14.5-37.1-36.3c0-19.5,12.2-38.2,47.6-38.2h59.1l-12.8,27.3h-51.1
			c-9.8,0-12.8,5.1-12.8,10c0,5,3.7,10.6,11.2,10.6h28.7c26.6,0,38.1,15.1,38.1,34.8c0,21.2-12.8,38.6-39.6,38.6L952.9,706.8z"/>
	</g>
</g>
</svg>
