<?xml version="1.0" encoding="utf-8"?>
<!-- Generator: Adobe Illustrator 27.7.0, SVG Export Plug-In . SVG Version: 6.00 Build 0)  -->
<svg version="1.1" id="Capa_1" xmlns="http://www.w3.org/2000/svg" xmlns:xlink="http://www.w3.org/1999/xlink" x="0px" y="0px"
	 viewBox="0 0 1080 1080" style="enable-background:new 0 0 1080 1080;" xml:space="preserve">
<style type="text/css">
	.st0{fill:#2D3035;}
	.st1{opacity:0.75;fill:#2D3035;}
	.st2{fill-rule:evenodd;clip-rule:evenodd;fill:#2D3035;}
</style>
<g>
	<g>
		<path class="st0" d="M582.6,563.3l-25.4-80.1l-24.8,80.1H582.6z M581.2,456.7l57.4,169.6h-36.1l-11.6-35.1h-67.5l-11.8,35.1h-36.1
			l53.1-156.6c2.7-7.6,9.9-13,18-13L581.2,456.7L581.2,456.7z M744.9,583.3c0,12.4-6.6,16.5-22.1,16.5h-35.3v-46.3h38.2
			c13.6,0,19.2,5.6,19.2,17.1L744.9,583.3L744.9,583.3z M687.5,483.1h33c12.6,0,18,4.3,18,13.8V512c0,9.9-5,15.7-18.4,15.7h-32.8
			v-44.6H687.5z M752.8,537.9c13.8-5.6,20.2-13.4,20.2-27.5v-17.6c0-22.9-13.8-36.1-48.3-36.1H653v169.6h76.4
			c33,0,49.8-15.1,49.8-38.8v-18.2C779.2,552.7,769.5,541.2,752.8,537.9 M413,480.7c-21.5,0.6-28.7,8.3-28.7,25.6v65.1
			c0,17.3,7.2,25,28.7,25.6v0.2h30.8c9.3,0,16.7,7.4,16.7,16.7v12.4H413v-0.2c-44.2-0.4-63.2-18.4-63.2-49.2v-76.4
			c0-30.8,19-48.7,63.2-49.2h32.6c9.3,0,16.7,7.4,16.7,16.7v12.2H413 M1071.1,598v28.3H961.8V483.3v-10.1c0-10.5,8.5-19,19-19h15.3
			v29.1V598H1071.1z M893.6,563.3l-25.4-80.1l-24.8,80.1H893.6z M892.4,456.7l57.4,169.6h-36.1l-11.6-35.1h-67.5l-11.8,35.1h-36.1
			l51.4-151.8c3.5-10.5,13.6-17.8,24.8-17.8H892.4z M162.9,404.4L288.7,528c7,6.8,7,18.2,0,25L163.1,676.5v-69l59.1-58.2
			c5-4.8,5-12.6,0-17.6l-59.1-58.5v-68.8H162.9z M139.8,473.2l-59.1,58.5c-5,4.8-5,12.6,0,17.6l59.1,58.2v69L14.2,552.9
			c-7-6.8-7-18.2,0-25L140,404.4v68.8H139.8z"/>
	</g>
</g>
</svg>
