<?xml version="1.0" encoding="UTF-8"?>
<svg id="Capa_1" data-name="Capa 1" xmlns="http://www.w3.org/2000/svg" viewBox="0 0 1080 1080">
  <defs>
    <style>
      .cls-1 {
        fill: none;
        isolation: isolate;
      }

      .cls-2 {
        fill: #292b2f;
      }
    </style>
  </defs>
  <path id="Descargar_PDF" data-name="Descargar PDF" class="cls-2" d="m20.31,134.99C20.38,60.47,80.77.07,155.3,0h337.49v270c-.05,37.23,30.1,67.46,67.33,67.51.06,0,.12,0,.17,0h270v303.72h-438.76c-74.52.07-134.92,60.47-134.99,134.99v303.75h-101.25c-74.52-.07-134.92-60.47-134.99-134.99V134.99Zm809.99,134.99h-270V0l270,269.98Z"/>
  <g id="XLS" class="cls-1">
    <g class="cls-1" >
      <path class="cls-2" d="m428.04,1066.13c-2.89,6.37-8.15,9.56-15.75,9.56h-43.46c-4.35,0-7.33-1.35-8.96-4.06-1.63-2.71-1.72-5.66-.27-8.84l76.05-157.76-74.42-153.92c-1.45-2.55-1.45-5.26,0-8.13,1.44-2.87,4.15-4.3,8.14-4.3h45.63c7.61,0,12.86,3.19,15.76,9.56l43.46,97.51,44-97.51c2.89-6.37,8.15-9.56,15.75-9.56h45.09c4.35,0,7.24,1.44,8.69,4.3,1.44,2.87,1.26,5.57-.54,8.13l-73.88,153.92,75.5,157.76c1.45,3.18,1.45,6.13,0,8.84-1.44,2.71-4.35,4.06-8.69,4.06h-44c-7.61,0-12.86-3.19-15.75-9.56l-46.17-100.86-46.18,100.86Z"/>
      <path class="cls-2" d="m717.52,1021.68h84.74c7.97,0,11.96,3.51,11.96,10.52v32.98c0,7.01-3.99,10.52-11.96,10.52h-138.52c-8.33,0-12.5-3.51-12.5-10.52v-315.49c0-7.33,4.17-11,12.5-11h41.84c7.96,0,11.95,3.67,11.95,11v272Z"/>
      <path class="cls-2" d="m1030.91,1057.53c-19.2,14.97-45.27,22.47-78.22,22.47-28.97,0-50.88-2.08-65.73-6.22-8.69-2.24-13.04-6.7-13.04-13.39v-30.59c0-8.28,5.07-10.99,15.21-8.13,13.76,3.82,30.06,5.73,48.88,5.73,35.5,0,53.24-12.9,53.24-38.72,0-12.11-3.72-22.38-11.13-30.82-7.43-8.45-20.92-19.05-40.47-31.79-21-14.03-37.21-28.84-48.61-44.46-11.4-15.61-17.11-35.69-17.11-60.23,0-29.64,7.97-51.47,23.9-65.48,15.93-14.03,42.74-21.04,80.4-21.04,19.92,0,37.84,1.6,53.78,4.79,7.96,1.59,11.95,5.89,11.95,12.9v31.07c0,7.34-5.07,10.05-15.21,8.13-14.12-2.87-28.25-4.29-42.36-4.29-15.94,0-27.26,2.87-33.95,8.6-6.7,5.74-10.05,14.66-10.05,26.77,0,20.4,15.58,41.11,46.72,62.14,16.3,11.48,28.97,21.35,38.03,29.64,9.05,8.28,16.74,18.88,23.08,31.79,6.34,12.9,9.5,27.64,9.5,44.21,0,29.64-9.59,51.95-28.79,66.93Z"/>
    </g>
  </g>
</svg>