<?xml version="1.0" encoding="utf-8"?>
<!-- Generator: Adobe Illustrator 27.7.0, SVG Export Plug-In . SVG Version: 6.00 Build 0)  -->
<svg version="1.1" id="Capa_1" xmlns="http://www.w3.org/2000/svg" xmlns:xlink="http://www.w3.org/1999/xlink" x="0px" y="0px"
	 viewBox="0 0 1080 1080" style="enable-background:new 0 0 1080 1080;" xml:space="preserve">
<style type="text/css">
	.st0{fill:#2D3035;}
	.st1{opacity:0.75;fill:#2D3035;}
	.st2{fill-rule:evenodd;clip-rule:evenodd;fill:#2D3035;}
</style>
<g id="XMLID_00000011012990132817029910000007267607081437487251_">
	<g>
		<g>
			<path class="st0" d="M351.1,317.6v444.1c-89.1-34.4-153-120.7-153-222.6C198.1,438.3,262,351,351.1,317.6z"/>
			<path class="st0" d="M674.6,539.1c0,101.9-62.8,188.2-152.7,222.6V317.6C611.7,352,674.6,438.3,674.6,539.1z"/>
			<path class="st0" d="M628.8,130.1H435.6c-226.9,0-414.3,169-414.3,413.2c0,223.7,187.4,407.2,414.3,406.5h193.1
				c224.4,0.7,429.9-182.8,429.9-406.5C1058.7,299.1,853.1,130.1,628.8,130.1z M436.3,914.4c-208,0-376-167.9-376-375.2
				c0-207,167.9-375.2,376-375.2c208,0,376.3,168.3,376.3,375.2C812.7,746.4,644.4,914.4,436.3,914.4z"/>
		</g>
	</g>
</g>
</svg>
