<?xml version="1.0" encoding="UTF-8"?>
<svg id="Capa_1" data-name="Capa 1" xmlns="http://www.w3.org/2000/svg" viewBox="0 0 1080 1080">
  <defs>
    <style>
      .cls-1 {
        fill: #2d3035;
      }
    </style>
  </defs>
  <path class="cls-1" d="m1002.18-.15H77.82C34.8-.15-.08,34.72-.08,77.75v924.35c0,43.03,34.88,77.9,77.9,77.9h499.09v-417.72h-140.29v-163.5h140.29v-120.33c0-139.54,85.19-215.48,209.66-215.48,59.62,0,110.85,4.44,125.78,6.43v145.84h-85.83c-67.72,0-80.83,32.18-80.83,79.41v104.13h161.92l-21.1,163.5h-140.82v417.72h256.48c43.03,0,77.9-34.88,77.9-77.9V77.75c0-43.03-34.88-77.9-77.9-77.9h0Zm0,0"/>
</svg>