<?xml version="1.0" encoding="UTF-8"?>
<svg id="Capa_1" data-name="Capa 1" xmlns="http://www.w3.org/2000/svg" viewBox="0 0 1080 1080">
  <defs>
    <style>
      .cls-1 {
        fill: #2d3035;
      }
    </style>
  </defs>
  <path class="cls-1" d="m890.4,366.12c-1.97-41.9-9.17-64.48-15.06-79.87-6.89-18.66-17.68-35.35-32.41-49.43-13.41-14.08-30.77-25.53-49.42-32.4-15.07-5.89-37.64-12.77-79.86-14.4-45.5-2.29-58.93-2.94-173.81-2.94s-128.64.65-173.81,2.94c-41.91,1.64-64.49,8.51-80.2,14.4-18.33,6.88-35.35,18.33-49.42,32.4-14.08,14.08-24.88,30.77-31.76,49.43-5.9,15.39-13.09,37.97-15.06,79.87-1.97,45.17-2.62,58.92-2.62,173.8s.66,128.64,2.62,173.8c1.97,41.9,9.16,65.14,15.06,79.87,6.87,18.66,17.68,35.35,31.76,49.43,14.06,14.08,31.09,25.53,49.42,32.4,15.71,5.89,38.29,12.77,80.2,14.4,45.17,2.29,58.91,2.94,173.81,2.94s128.31-.66,173.81-2.94c42.23-1.64,64.79-8.51,79.86-14.4,37.64-14.4,67.09-44.19,81.83-81.83,5.88-14.73,12.75-37.97,15.06-79.87,1.63-45.17,1.97-58.92,1.97-173.8s-.34-128.64-1.97-173.8Zm-350.56,394.75c-121.77,0-220.62-98.85-220.62-220.94s98.85-220.94,220.62-220.94,220.94,98.85,220.94,220.94-98.85,220.94-220.94,220.94Zm229.78-399c-28.82,0-51.72-22.91-51.72-51.72s22.9-51.72,51.72-51.72,51.72,23.24,51.72,51.72-23.25,51.72-51.72,51.72Z"/>
  <path class="cls-1" d="m0,294.55v490.9C0,948.13,131.87,1080,294.55,1080h490.9c162.67,0,294.55-131.87,294.55-294.55v-490.9C1080,131.87,948.13,0,785.45,0h-490.9C131.87,0,0,131.87,0,294.55Zm963.4,455.19c-2.78,50.58-11.07,78.63-18.17,96.42-17.79,45.44-53.35,81.4-98.79,98.79-18.19,7.11-45.44,15.41-96.41,17.39-54.93,2.76-71.14,3.55-209.82,3.55s-155.3-.79-209.82-3.55c-50.59-1.98-77.85-10.27-96.82-17.39-22.13-8.3-42.68-22.13-59.66-39.12-17-16.99-30.04-37.15-38.34-59.67-7.12-17.78-15.8-45.84-18.18-96.42-2.37-54.53-3.16-71.12-3.16-209.82s.79-155.29,3.16-209.82c2.37-50.58,11.06-77.84,18.18-96.42,8.3-22.52,21.34-42.67,38.34-59.67,16.98-16.99,37.53-30.82,59.66-39.12,18.97-7.11,46.23-15.41,96.82-17.39,54.53-2.76,71.12-3.55,209.82-3.55s154.89.79,209.82,3.55c50.98,1.98,78.22,10.27,96.41,17.39,22.52,8.3,43.47,22.13,59.66,39.12,17.79,16.99,30.81,37.15,39.13,59.67,7.1,18.58,15.8,45.84,18.17,96.42,1.97,54.53,2.37,71.12,2.37,209.82s-.41,155.29-2.37,209.82Z"/>
  <path class="cls-1" d="m539.84,396.56c-79.22,0-143.38,64.48-143.38,143.37s64.15,143.37,143.38,143.37,143.36-64.48,143.36-143.37-63.83-143.37-143.36-143.37Z"/>
</svg>