<?xml version="1.0" encoding="utf-8"?>
<!-- Generator: Adobe Illustrator 27.7.0, SVG Export Plug-In . SVG Version: 6.00 Build 0)  -->
<svg version="1.1" id="Capa_1" xmlns="http://www.w3.org/2000/svg" xmlns:xlink="http://www.w3.org/1999/xlink" x="0px" y="0px"
	 viewBox="0 0 1080 1080" style="enable-background:new 0 0 1080 1080;" xml:space="preserve">
<style type="text/css">
	.st0{fill:#2D3035;}
	.st1{opacity:0.75;fill:#2D3035;}
	.st2{fill-rule:evenodd;clip-rule:evenodd;fill:#2D3035;}
</style>
<g>
	<path class="st1" d="M680.2,792.3H399.8v-504h280.4V792.3"/>
	<path class="st0" d="M417.8,540c0-98.1,44.7-190.9,122.2-251.7c-56.7-44.7-126.2-68.8-198.3-68.8C164.8,219.6,21.3,363.1,21.3,540
		s143.5,320.4,320.4,320.4c72.1,0,141.5-24,198.3-68.8C462.6,731.6,417.8,638.8,417.8,540"/>
	<path class="st0" d="M1058.7,540c0,176.9-143.5,320.4-320.4,320.4c-72.1,0-141.5-24-198.3-68.8c77.4-60.7,122.2-153.5,122.2-251.7
		S617.4,349.1,540,288.3c56.1-44.7,126.2-68.8,198.3-68.8C915.2,219.6,1058.7,363.1,1058.7,540"/>
</g>
</svg>
