<?xml version="1.0" encoding="UTF-8"?>
<svg id="Capa_1" data-name="Capa 1" xmlns="http://www.w3.org/2000/svg" viewBox="0 0 1080 1080">
  <defs>
    <style>
      .cls-1 {
        fill: #2d3035;
      }
    </style>
  </defs>
  <path class="cls-1" d="m162.47,417.2h-30.2c-1.94,0-3.54,1.59-3.54,3.54l.7,112.98c0,.72-.92.97-1.32.37l-73.45-114.13c-1.1-1.72-3.01-2.77-5.05-2.77H16.41c-1.94,0-3.54,1.59-3.54,3.54v175.85c0,1.94,1.59,3.54,3.54,3.54h30.2c1.94,0,3.54-1.59,3.54-3.54v-111.89c0-.7.92-.97,1.29-.37l72.76,113.03c1.1,1.72,3.01,2.77,5.05,2.77h33.19c1.94,0,3.54-1.59,3.54-3.54v-175.85c0-1.97-1.57-3.54-3.51-3.54Z"/>
  <path class="cls-1" d="m669.73,487.62c-9.29-11.69-24.28-17.62-40.51-17.62-3.09,0-7.77.57-11.18,1.64-3.51,1.1-8.79,4.01-11.95,7.08-.45.45-1.22.1-1.22-.52v-2.27c0-1.94-1.59-3.54-3.54-3.54h-29.8c-1.94,0-3.54,1.59-3.54,3.54v120.66c0,1.94,1.59,3.54,3.54,3.54h29.83c1.94,0,3.54-1.59,3.54-3.54,0,0,.12-73.54.12-74.28,0-11.46,9.44-18.24,20.17-18.24,13,0,19.6,9.24,20.29,19.46,0,.07.02,73.06.02,73.06,0,1.94,1.59,3.54,3.54,3.54h29.8c1.94,0,3.54-1.59,3.54-3.54v-62.5c-.02-21.38-3.83-35.39-12.65-46.47Z"/>
  <path class="cls-1" d="m544.47,472.4h-29.75c-1.97,0-3.56,1.59-3.56,3.56v2.19c0,.6-.67.95-1.17.6-8.04-5.81-17.95-8.97-27.49-8.97-16.51,0-31.2,5.63-43.7,16.77-14.49,13.01-21.84,29.68-21.84,49.59,0,17.27,5.68,32.32,16.88,44.78,13,14.5,29.36,21.85,48.65,21.85,9.59,0,18.82-3.09,27.56-8.35.5-.3,1.1.05,1.1.62v1.52c0,1.97,1.59,3.56,3.56,3.56h29.75c1.97,0,3.56-1.59,3.56-3.56v-120.61c0-1.97-1.59-3.56-3.56-3.56Zm-61.45,96.21c-7.99,0-14.59-2.72-20.19-8.35-5.7-5.71-8.59-13.83-8.59-24.12,0-8.8,2.14-16.02,6.37-21.43,5.73-7.28,12.9-10.79,21.91-10.79s15.29,2.67,20.54,8.17c5.65,5.88,8.51,13.93,8.51,23.92,0,8.82-2.12,16.15-6.27,21.73-5.58,7.3-12.85,10.86-22.28,10.86Z"/>
  <path class="cls-1" d="m311.64,472.4h-29.75c-1.97,0-3.56,1.59-3.56,3.56v2.19c0,.6-.67.95-1.17.6-8.04-5.81-17.95-8.97-27.49-8.97-16.51,0-31.2,5.63-43.7,16.77-14.49,13.01-21.84,29.68-21.84,49.59,0,17.27,5.68,32.32,16.88,44.78,13,14.5,29.36,21.85,48.65,21.85,9.59,0,18.82-3.09,27.56-8.35.5-.3,1.1.05,1.1.62v1.52c0,1.97,1.59,3.56,3.56,3.56h29.75c1.97,0,3.56-1.59,3.56-3.56v-120.61c.02-1.97-1.59-3.56-3.56-3.56Zm-61.43,96.21c-7.99,0-14.59-2.72-20.19-8.35-5.7-5.71-8.59-13.83-8.59-24.12,0-8.8,2.14-16.02,6.37-21.43,5.73-7.28,12.9-10.79,21.91-10.79s15.29,2.67,20.54,8.17c5.65,5.88,8.52,13.93,8.52,23.92,0,8.82-2.12,16.15-6.28,21.73-5.58,7.3-12.87,10.86-22.28,10.86Z"/>
  <path class="cls-1" d="m882.5,472.4h-29.75c-1.97,0-3.56,1.59-3.56,3.56v2.19c0,.6-.67.95-1.17.6-8.04-5.81-17.95-8.97-27.49-8.97-16.51,0-31.2,5.63-43.7,16.77-14.49,13.01-21.84,29.68-21.84,49.59,0,17.27,5.68,32.32,16.88,44.78,13,14.5,29.36,21.85,48.65,21.85,9.59,0,18.82-3.09,27.56-8.35.5-.3,1.1.05,1.1.62v1.52c0,1.97,1.59,3.56,3.56,3.56h29.75c1.97,0,3.56-1.59,3.56-3.56v-120.61c0-1.97-1.59-3.56-3.56-3.56Zm-61.45,96.21c-7.99,0-14.59-2.72-20.19-8.35-5.7-5.71-8.59-13.83-8.59-24.12,0-8.8,2.14-16.02,6.37-21.43,5.73-7.28,12.9-10.79,21.91-10.79s15.29,2.67,20.54,8.17c5.65,5.88,8.51,13.93,8.51,23.92,0,8.82-2.12,16.15-6.27,21.73-5.58,7.3-12.87,10.86-22.28,10.86Z"/>
  <path class="cls-1" d="m397.34,472.89c-6.62,0-14.37,3.02-18.87,6.58-.47.37-1.17.05-1.17-.57v-2.99c0-1.94-1.59-3.54-3.54-3.54h-29.8c-1.94,0-3.54,1.59-3.54,3.54v120.66c0,1.94,1.59,3.54,3.54,3.54h29.8c1.94,0,3.54-1.59,3.54-3.54v-58.11c0-12.41,1.54-21.01,4.53-25.52,2.74-4.01,8.04-6.06,15.76-6.06,2.07,0,5.48.02,10.56.52,1.97.18,3.68-1.67,3.61-3.69v-26.56c0-1.79-1.34-3.31-3.14-3.51-4.38-.5-8.19-.75-11.28-.75Z"/>
  <path class="cls-1" d="m738.51,423.73c-4.41-4.24-9.64-6.38-15.56-6.38s-11.48,2.09-15.96,6.25c-4.38,4.24-6.6,9.44-6.6,15.52s2.22,11.56,6.57,15.75c4.26,4.26,9.56,6.43,15.74,6.43s11.43-2.14,15.86-6.43c4.26-4.29,6.42-9.52,6.42-15.6s-2.14-11.04-6.37-15.45c-.05-.05-.07-.07-.1-.1Z"/>
  <path class="cls-1" d="m737.54,472.42h-29.8c-1.94,0-3.54,1.59-3.54,3.54v126.74c-.12,5.28-2.46,22.6-26.54,24.27-1.84.12-3.26,1.69-3.26,3.56v28.86c.07,1.92,1.62,3.44,3.54,3.44h.22c6-.3,59.91-4.41,62.79-56.52.07-.27.12-.57.12-.9v-129.43c0-1.97-1.59-3.56-3.54-3.56Z"/>
  <path class="cls-1" d="m954.26,420.31c-1.19-1.87-3.44-3.11-5.65-3.11h-34.51c-2.79,0-4.46,3.09-2.96,5.43l55.13,85.25c.3.47.3,1.07,0,1.54l-55.13,85.27c-1.52,2.34.18,5.43,2.94,5.43h34.66c2.22,0,4.26-1.12,5.45-2.97l53.83-83.68c1.89-2.94,1.89-6.73,0-9.67l-53.76-83.5Z"/>
  <path class="cls-1" d="m1019.07,520.99c-.57-.87-1.84-.87-2.42,0l-18,27.96c-1.89,2.94-1.89,6.73,0,9.67l24.43,37.93c1.44,2.24,3.91,3.59,6.55,3.59h33.94c2.78,0,4.48-3.09,2.96-5.43l-47.45-73.71Z"/>
  <path class="cls-1" d="m1023.1,420.76l-24.43,37.93c-1.89,2.94-1.89,6.73,0,9.67l18,27.98c.55.87,1.82.87,2.37,0l47.53-73.83c1.47-2.29-.17-5.33-2.89-5.33h-34.04c-2.66.02-5.13,1.37-6.55,3.59Z"/>
</svg>