<?xml version="1.0" encoding="utf-8"?>
<!-- Generator: Adobe Illustrator 27.7.0, SVG Export Plug-In . SVG Version: 6.00 Build 0)  -->
<svg version="1.1" id="Capa_1" xmlns="http://www.w3.org/2000/svg" xmlns:xlink="http://www.w3.org/1999/xlink" x="0px" y="0px"
	 viewBox="0 0 1080 1080" style="enable-background:new 0 0 1080 1080;" xml:space="preserve">
<style type="text/css">
	.st0{fill:#2D3035;}
	.st1{opacity:0.75;fill:#2D3035;}
	.st2{fill-rule:evenodd;clip-rule:evenodd;fill:#2D3035;}
</style>
<g>
	<g>
		<path class="st2" d="M942.3,487.7c-21,0-44.2,3.1-50.9,38.5l-18.7,90.6h135.7c20.8,0,39.3-8.1,45.6-38.4l18.7-90.8H942.3z
			 M917.2,598c-4.2-4-4.2-10.3,0-14.2l31.9-29.1l3-2.9c3.7-3.4,3.3-4.9-0.5-8.6l-4-4l-14.4-13.6c-4.2-4.1-4.2-10.4,0-14.2
			c4.1-4.1,10.7-4.1,15,0l30.9,29.2c4,4,4,10.4,0,14.4L932.1,598C928,602,921.3,602,917.2,598z M1026.9,554.9l-47,43.1
			c-4.1,4-10.9,4-15,0c-4.2-4-4.2-10.3,0-14.2l31.9-29.1l3-2.9c3.7-3.4,3.3-4.9-0.5-8.6l-4-4L981,525.6c-4.2-4.1-4.2-10.4,0-14.2
			c4.1-4.1,10.9-4.1,15,0l30.9,29.2C1030.9,544.5,1030.9,550.9,1026.9,554.9z"/>
		<polygon class="st2" points="163,468.2 155.3,468.2 156.4,462.9 178,462.9 176.9,468.2 169.2,468.2 164.8,491.8 158.5,491.8 		"/>
		<path class="st2" d="M189.4,479.7l-0.6-6.2c-0.1-1.6-0.3-4-0.4-5.8c-0.7,1.8-1.6,4-2.4,5.8l-2.8,6.2H189.4z M181.4,484.4
			L181.4,484.4l-3.6,7.4h-6.5l14.1-28.9h7.9l3.6,28.9h-6.5l-0.6-7.4H181.4z"/>
		<path class="st2" d="M208.7,475.8h2.5c3.4,0,5.8-2.1,5.8-4.9c0-2.2-1.9-3.3-4.5-3.3c-1,0-1.8,0-2.4,0.1L208.7,475.8z M205,463.5
			L205,463.5c1.9-0.4,4.8-0.7,7.7-0.7c2.7,0,5.5,0.3,7.6,1.6c1.9,1,3.3,3,3.3,5.6c0,4.3-3,7-6.7,8.2v0.2c1.8,0.7,2.5,2.7,2.8,5.3
			c0.3,3.3,0.6,7,1.2,8.2h-6.4c-0.3-0.7-0.6-3.3-0.9-6.8c-0.3-3.4-1.5-4.6-3.9-4.6h-1.9l-2.2,11.4h-6.1L205,463.5z"/>
		<path class="st2" d="M236.5,462.9h6.1L239,482c-1.3,7.3-4.6,10.2-11.1,10.2c-1.9,0-3.9-0.3-4.8-0.6l1.2-5.3
			c0.9,0.3,2.1,0.6,3.4,0.6c2.8,0,4.5-1.3,5.2-5.6L236.5,462.9z"/>
		<polygon class="st2" points="260.4,479.5 250.1,479.5 248.8,486.5 260.4,486.5 259.3,491.8 241.5,491.8 247,462.9 264.2,462.9 
			263.2,468.2 252.2,468.2 251,474.3 261.4,474.3 		"/>
		<polygon class="st2" points="274.9,468.2 267.3,468.2 268.4,462.9 289.9,462.9 288.9,468.2 281.1,468.2 276.7,491.8 270.5,491.8 
					"/>
		<path class="st2" d="M300.4,479.7l-0.4-6.2c-0.2-1.6-0.3-4-0.4-5.8h-0.2c-0.7,1.8-1.5,4-2.4,5.8l-2.8,6.2H300.4z M292.4,484.4
			L292.4,484.4l-3.4,7.4h-6.5l14-28.9h8l3.4,28.9h-6.5l-0.6-7.4H292.4z"/>
		<path class="st2" d="M7.4,616.8l5-25.1h53.2c26.4,0,31.2-3.7,34.9-21.4c4.6-21.7-7.6-18.9-30-20c-32.4-1.9-55.4-0.7-46-44.8
			c8.8-41.9,31.9-42.3,68.4-42.3h44.7l-4.9,24.5H88.1c-28.9,0-34.3,1.5-37.7,17.8c-3.9,18.6-0.1,19.2,29,20.9
			c46.3,2.8,55.8,5.3,47.7,43.9c-9.1,42.8-27.5,46.5-66.7,46.5L7.4,616.8L7.4,616.8z"/>
		<path class="st2" d="M151.4,508l-16.3,79c-4.8,23.3,7.9,29.8,29.2,29.8h34c25.4,0,31.3-26.1,32.2-30.1c0.9-4,11-54,11-54l5.2-24.6
			h-26l-9.5,47.2l-5,23.2c0,0-1.9,13.4-13.5,13.4h-16.3c-9.8,0-15.6-3-13.4-13.4l14.6-70.4L151.4,508L151.4,508z"/>
		<path class="st2" d="M246.4,565c10.4-48.5,22.4-57,67.3-57H350l-4.9,24.5l-33.3,0.1c-29.4,0-33.1,3.7-39.5,33.4l-0.6,4.2
			c-2.4,19,3.3,21.5,28.8,21.5h32.5l-5.3,25.1h-33c-48,0.9-54.6-10.5-49.4-45.9L246.4,565z"/>
		<path class="st2" d="M421.7,532.5h-30c-5.2,0-7.1,1.3-8.2,6.8l-2.4,11.7l-13.5,65.8h-26.1l17.8-86.1c2.5-14,9.8-22.7,25.1-22.7h42
			L421.7,532.5z"/>
		<polygon class="st2" points="664.6,616.8 638.6,616.8 660.9,508 687,508 		"/>
		<polygon class="st2" points="688.8,499.5 662.7,499.5 666.1,483.4 692.1,483.4 		"/>
		<path class="st2" d="M782.5,562.8c-5.6,27,3.9,29.4,16.9,29.4c17.5,0,24.5,1.3,30.4-27c6.1-28.8,1.2-33.4-16.9-33.4
			C791.8,531.8,788.4,535,782.5,562.8 M856.3,562.5L856.3,562.5c-8.8,41.1-18.1,54.8-62.4,54.8c-38.3,0-46.2-13.7-37.4-54.8
			c8.8-41.3,16.2-54.5,60.6-54.5C861.5,508,865,521.2,856.3,562.5"/>
		<path class="st2" d="M604.5,578.4c-4.5,11.6-12.3,13.4-28.2,13.4c-22.6,0-20.5-9.3-15.9-30.6c5.3-24.9,8.2-29.5,30.7-29.5
			c15.7,0,21.5,1.8,20.2,13.7C610.9,550.3,604.5,578.4,604.5,578.4 M626.3,472.8L626.3,472.8l-7.9,38c-5.9-1.3-13.7-2.8-23.2-2.8
			c-44.4,0-52.9,13.2-61.6,54.5c-8.8,41.1-5.8,54.3,38.6,54.3c9.5,0,17.4-0.6,23.9-1.9c20.6-4.3,30.3-16.2,35-39.6l5.8-26.9
			l15.4-75.6L626.3,472.8L626.3,472.8z"/>
		<path class="st2" d="M456.2,537.7c5.6-6.2,15.6-6.4,27.2-6.4c6.7,0,12.3,0.7,15.1,3.7c2.1,2.4,1.3,6.1,0.6,9.9
			c-0.6,2.7-0.7,3.1-1.3,6.2h-46.3C451.4,551.2,453.1,541.1,456.2,537.7 M464.6,591.7L464.6,591.7c-17.1,0-20.2-5.3-19-13.4l1.5-6.7
			h71.4c3.1-14.6,5-24,7-33.4c3.4-17.1-9.8-28.1-28.2-29.5c-5.6-0.6-24.5-0.4-28.8,0.1c-30.7,3.6-39,20.5-46,53.9
			c-8.8,41.1-3.3,54,37.6,54h49.3l5-25.1L464.6,591.7L464.6,591.7z"/>
		<path class="st2" d="M485.7,500l21.1-19.3c3.7-3.1,9.2-2.7,12.3,1c3.1,3.7,2.7,9.4-1,12.5l-14.3,5.8H485.7z"/>
		<polygon class="st2" points="753.7,532.5 738.1,532.5 720.7,616.8 694.8,616.8 712.1,532.5 696.2,532.5 701.3,508 717,508 
			722.2,483.4 748.2,483.4 743.1,508 758.9,508 		"/>
	</g>
</g>
</svg>
