<?xml version="1.0" encoding="utf-8"?>
<!-- Generator: Adobe Illustrator 27.7.0, SVG Export Plug-In . SVG Version: 6.00 Build 0)  -->
<svg version="1.1" id="Capa_1" xmlns="http://www.w3.org/2000/svg" xmlns:xlink="http://www.w3.org/1999/xlink" x="0px" y="0px"
	 viewBox="0 0 1080 1080" style="enable-background:new 0 0 1080 1080;" xml:space="preserve">
<style type="text/css">
	.st0{fill:#2D3035;}
	.st1{opacity:0.75;fill:#2D3035;}
	.st2{fill-rule:evenodd;clip-rule:evenodd;fill:#2D3035;}
</style>
<g>
	<g>
		<path class="st0" d="M558.3,478c-0.6,47.9,42.7,74.7,75.3,90.6c33.5,16.3,44.8,26.8,44.7,41.4c-0.3,22.3-26.7,32.2-51.5,32.6
			c-43.2,0.7-68.4-11.7-88.4-21l-15.6,72.9c20.1,9.2,57.2,17.3,95.7,17.7c90.4,0,149.5-44.6,149.9-113.8
			c0.4-87.8-121.5-92.7-120.6-131.9c0.3-11.9,11.6-24.6,36.5-27.8c12.3-1.6,46.3-2.9,84.9,14.9l15.1-70.5
			c-20.7-7.5-47.4-14.8-80.5-14.8C618.6,368,558.8,413.2,558.3,478 M929.6,374.1c-16.5,0-30.4,9.6-36.6,24.4L763.9,706.8h90.3
			l18-49.7h110.4l10.4,49.7h79.6l-69.5-332.7H929.6 M942.3,464l26.1,124.9h-71.4L942.3,464 M448.8,374.1l-71.2,332.7h86.1
			l71.2-332.7H448.8 M321.4,374.1l-89.6,226.5L195.6,408c-4.3-21.5-21-33.9-39.7-33.9H9.4l-2,9.7c30.1,6.5,64.2,17,84.9,28.3
			c12.7,6.9,16.3,12.9,20.4,29.2l68.6,265.5h91l139.5-332.7H321.4"/>
	</g>
</g>
</svg>
